<svg xmlns="http://www.w3.org/2000/svg" xmlns:xlink="http://www.w3.org/1999/xlink" version="1.1" x="0px" y="0px" viewBox="0 0 100 125" enable-background="new 0 0 100 100" xml:space="preserve"><rect x="13.449" y="11.384" width="72.934" height="2.498"/><path d="M91.295,86.732c0,1.038-0.846,1.883-1.888,1.883H10.425c-1.042,0-1.888-0.845-1.888-1.883v-2.219  c0-1.046,0.846-1.891,1.888-1.891h78.982c1.042,0,1.888,0.845,1.888,1.891V86.732z"/><polygon points="14.824,16.878 5.166,33.861 18.653,33.861 25.48,16.878 "/><polygon points="35.138,16.878 30.308,33.861 43.631,33.861 45.628,16.878 "/><polygon points="85.343,16.878 95,33.861 81.513,33.861 74.686,16.878 "/><polygon points="65.026,16.878 69.854,33.861 56.535,33.861 54.538,16.878 "/><path d="M18.48,36.396c0,3.722-3.017,6.741-6.741,6.741l0,0C8.016,43.137,5,40.118,5,36.396H18.48z"/><path d="M43.623,36.396c0,3.722-3.017,6.741-6.74,6.741l0,0c-3.72,0-6.741-3.019-6.741-6.741H43.623z"/><path d="M69.69,36.396c0,3.722-3.019,6.741-6.74,6.741l0,0c-3.722,0-6.74-3.019-6.74-6.741H69.69z"/><path d="M94.833,36.396c0,3.722-3.017,6.741-6.741,6.741l0,0c-3.719,0-6.737-3.019-6.737-6.741H94.833z"/><path d="M88.092,44.645c-3.724,0-6.877-2.48-7.898-5.876H70.85c-1.022,3.396-4.176,5.876-7.899,5.876  c-3.726,0-6.878-2.48-7.899-5.876H44.783c-1.021,3.396-4.174,5.876-7.9,5.876c-3.725,0-6.877-2.48-7.899-5.876H19.64  c-1.022,3.396-4.175,5.876-7.9,5.876c-0.978,0-1.914-0.18-2.786-0.493v33.939c0,1.041,0.846,1.888,1.888,1.888h78.149  c1.042,0,1.888-0.847,1.888-1.888V44.15C90.007,44.464,89.071,44.645,88.092,44.645z M59.414,78.077H40.419V56.882  c0-3.186,2.583-5.768,5.768-5.768h7.459c3.186,0,5.768,2.582,5.768,5.768V78.077z"/><text x="0" y="115" fill="#000000" font-size="5px" font-weight="bold" font-family="'Helvetica Neue', Helvetica, Arial-Unicode, Arial, Sans-serif">Created by Aaron K. Kim</text><text x="0" y="120" fill="#000000" font-size="5px" font-weight="bold" font-family="'Helvetica Neue', Helvetica, Arial-Unicode, Arial, Sans-serif">from the Noun Project</text></svg>