<svg xmlns="http://www.w3.org/2000/svg" xmlns:xlink="http://www.w3.org/1999/xlink" version="1.1" x="0px" y="0px" viewBox="0 0 100 125" enable-background="new 0 0 100 100" xml:space="preserve"><path d="M29.5,86.7h46.6C68.7,91.9,59.7,95,50,95C25.1,95,5,74.9,5,50c0-12.9,5.5-24.6,14.2-32.8c2,0.6,3.4,2.4,3.4,4.6v57.7  c0,2.7,2.2,4.8,4.9,4.8s4.9-2.2,4.9-4.8h47.3V21.8c0-2.7-2.2-4.8-4.9-4.8H19.5C27.5,9.6,38.3,5,50,5c24.9,0,45,20.1,45,45  c0,12.4-5.1,23.7-13.2,31.9h-4H34.4C34.4,84.6,32.2,86.7,29.5,86.7z M60.9,45.4c0-0.9-0.7-1.6-1.6-1.6s-1.6,0.7-1.6,1.6  c0,0.9,0.7,1.6,1.6,1.6S60.9,46.3,60.9,45.4z M43,47c0.9,0,1.6-0.7,1.6-1.6c0-0.9-0.7-1.6-1.6-1.6s-1.6,0.7-1.6,1.6S42.2,47,43,47z   M37.5,21.4c1.7,0,2.3,0.4,2.4,0.6l4.6,15.4l-2,3.2c-0.1,0.1-0.5,0.7-0.2,1.3c0.2,0.4,0.7,0.6,1.3,0.6h16.8c0.2,0,0.4,0.2,0.4,0.4  c0,0.3,0.3,0.6,0.6,0.6s0.6-0.3,0.6-0.6c0-0.9-0.7-1.6-1.6-1.6H43.7c-0.1,0-0.2,0-0.3,0c0,0,0-0.1,0.1-0.1l2-3.2l15.7-0.8  c0.8,0,1.5-0.6,1.6-1.5l1.8-9.2v-0.1c0-0.9-0.7-1.6-1.6-1.6l0,0l-21.4-1.3L41,21.6c-0.1-0.3-0.6-1.4-3.5-1.4c-0.3,0-0.6,0.3-0.6,0.6  S37.2,21.4,37.5,21.4z M41.6,55.1c0,0.8,0.7,1.5,1.5,1.5h29.1c0.8,0,1.5-0.7,1.5-1.5s-0.7-1.5-1.5-1.5H43.1  C42.3,53.6,41.6,54.3,41.6,55.1z M37,57.9h-5.5v-5.5H37V57.9z M36,53.4h-3.5v3.5H36V53.4z M72.2,61.5H43.1c-0.8,0-1.5,0.7-1.5,1.5  s0.7,1.5,1.5,1.5h29.1c0.8,0,1.5-0.7,1.5-1.5S73.1,61.5,72.2,61.5z M37,65.8h-5.5v-5.5H37V65.8z M36,61.3h-3.5v3.5H36V61.3z   M72.2,69.5H43.1c-0.8,0-1.5,0.7-1.5,1.5s0.7,1.5,1.5,1.5h29.1c0.8,0,1.5-0.7,1.5-1.5S73.1,69.5,72.2,69.5z M37,73.7h-5.5v-5.5H37  V73.7z M36,69.2h-3.5v3.5H36V69.2z"/><text x="0" y="115" fill="#000000" font-size="5px" font-weight="bold" font-family="'Helvetica Neue', Helvetica, Arial-Unicode, Arial, Sans-serif">Created by Wes Breazell</text><text x="0" y="120" fill="#000000" font-size="5px" font-weight="bold" font-family="'Helvetica Neue', Helvetica, Arial-Unicode, Arial, Sans-serif">from the Noun Project</text></svg>