<svg xmlns="http://www.w3.org/2000/svg" xmlns:xlink="http://www.w3.org/1999/xlink" xmlns:sketch="http://www.bohemiancoding.com/sketch/ns" viewBox="0 0 22 25" version="1.1" x="0px" y="0px"><title>album_collection</title><description>Created with Sketch (http://www.bohemiancoding.com/sketch)</description><g stroke="none" stroke-width="1" fill="none" fill-rule="evenodd" sketch:type="MSPage"><path d="M0.140487671,4 C0.0628984728,4 0,4.05793571 0,4.12879109 L0,19.8712089 C0,19.9423383 0.0631103513,20 0.140487671,20 L21.8595124,20 C21.9371015,20 22,19.9420643 22,19.8712089 L22,4.12879109 C22,4.05766174 21.9368896,4 21.8595124,4 L0.140487671,4 Z M2,0 L2,1 L20,1 L20,0 L2,0 Z M1,2 L1,3 L21,3 L21,2 L1,2 Z" fill="#000000" sketch:type="MSShapeGroup"/></g><text x="0" y="35" fill="#000000" font-size="5px" font-weight="bold" font-family="'Helvetica Neue', Helvetica, Arial-Unicode, Arial, Sans-serif">Created by Pham Thi Dieu Linh</text><text x="0" y="40" fill="#000000" font-size="5px" font-weight="bold" font-family="'Helvetica Neue', Helvetica, Arial-Unicode, Arial, Sans-serif">from the Noun Project</text></svg>