<?xml version="1.0" standalone="no"?><!DOCTYPE svg PUBLIC "-//W3C//DTD SVG 1.1//EN" "http://www.w3.org/Graphics/SVG/1.1/DTD/svg11.dtd"><svg width="100%" height="100%" viewBox="0 0 68 58" version="1.1" xmlns="http://www.w3.org/2000/svg" xmlns:xlink="http://www.w3.org/1999/xlink" xml:space="preserve" style="fill-rule:evenodd;clip-rule:evenodd;stroke-linejoin:round;stroke-miterlimit:1.41421;"><rect x="6.337" y="0" width="54.701" height="1.874" style="fill:#000;"/><path d="M64.721,56.511c0,0.779 -0.634,1.412 -1.416,1.412l-59.236,0c-0.782,0 -1.416,-0.633 -1.416,-1.412l0,-1.664c0,-0.785 0.634,-1.419 1.416,-1.419l59.236,0c0.782,0 1.416,0.634 1.416,1.419l0,1.664Z" style="fill:#000;fill-rule:nonzero;"/><path d="M7.368,4.121l-7.244,12.737l10.116,0l5.12,-12.738l-7.992,0Z" style="fill:#000;fill-rule:nonzero;"/><path d="M22.603,4.121l-3.622,12.737l9.992,0l1.498,-12.738l-7.868,0Z" style="fill:#000;fill-rule:nonzero;"/><path d="M60.257,4.121l7.243,12.737l-10.115,0l-5.12,-12.738l7.992,0Z" style="fill:#000;fill-rule:nonzero;"/><path d="M45.019,4.121l3.622,12.737l-9.99,0l-1.498,-12.738l7.866,0Z" style="fill:#000;fill-rule:nonzero;"/><path d="M10.11,18.759c0,2.792 -2.263,5.056 -5.056,5.056c-2.792,0 -5.054,-2.264 -5.054,-5.056l10.11,0Z" style="fill:#000;fill-rule:nonzero;"/><path d="M28.967,18.759c0,2.792 -2.263,5.056 -5.055,5.056c-2.79,0 -5.056,-2.264 -5.056,-5.056l10.111,0Z" style="fill:#000;fill-rule:nonzero;"/><path d="M48.518,18.759c-0.001,2.792 -2.265,5.056 -5.056,5.056c-2.791,0 -5.055,-2.264 -5.055,-5.056l10.11,0Z" style="fill:#000;fill-rule:nonzero;"/><path d="M67.375,18.759c0,2.792 -2.263,5.056 -5.056,5.056c-2.789,0 -5.053,-2.264 -5.053,-5.056l10.109,0Z" style="fill:#000;fill-rule:nonzero;"/><path d="M33.647,41.389c-2.976,0 -5.41,-2.435 -5.41,-5.41c0,-2.975 2.434,-5.41 5.41,-5.41c2.975,0 5.41,2.435 5.41,5.41c0,2.975 -2.435,5.41 -5.41,5.41ZM44.629,33.274l-1.191,0c-0.216,-0.811 -0.541,-1.596 -0.946,-2.326l0.838,-0.839c0.46,-0.459 0.46,-1.217 0,-1.677l-2.164,-2.163c-0.46,-0.46 -1.217,-0.46 -1.677,0l-0.838,0.838c-0.731,-0.406 -1.488,-0.73 -2.326,-0.947l0,-1.163c0.027,-0.649 -0.514,-1.19 -1.163,-1.19l-3.03,0c-0.676,0 -1.19,0.541 -1.19,1.19l0,1.19c-0.812,0.217 -1.596,0.541 -2.326,0.947l-0.839,-0.838c-0.46,-0.46 -1.217,-0.46 -1.677,0l-2.164,2.163c-0.459,0.46 -0.459,1.218 0,1.677l0.839,0.839c-0.406,0.73 -0.73,1.488 -0.947,2.326l-1.163,0c-0.676,-0.027 -1.19,0.514 -1.19,1.163l0,3.057c0,0.622 0.514,1.163 1.19,1.163l1.19,0c0.217,0.811 0.541,1.596 0.947,2.326l-0.839,0.839c-0.459,0.459 -0.459,1.217 0,1.677l2.164,2.163c0.46,0.46 1.217,0.46 1.677,0l0.839,-0.838c0.73,0.406 1.487,0.73 2.326,0.947l0,1.19c0,0.649 0.541,1.19 1.19,1.19l3.057,0c0.649,0 1.19,-0.541 1.19,-1.19l0,-1.19c0.811,-0.217 1.596,-0.541 2.326,-0.947l0.838,0.838c0.46,0.46 1.218,0.46 1.677,0l2.164,-2.163c0.46,-0.46 0.46,-1.218 0,-1.677l-0.838,-0.839c0.406,-0.73 0.73,-1.488 0.947,-2.326l1.19,0c0.649,0 1.19,-0.541 1.19,-1.19l0,-3.03c-0.081,-0.649 -0.622,-1.19 -1.271,-1.19ZM62.319,24.946c-2.793,0 -5.158,-1.86 -5.924,-4.407l-7.008,0c-0.766,2.547 -3.132,4.407 -5.924,4.407c-2.794,0 -5.158,-1.86 -5.924,-4.407l-7.702,0c-0.766,2.547 -3.13,4.407 -5.925,4.407c-2.794,0 -5.157,-1.86 -5.924,-4.407l-7.008,0c-0.767,2.547 -3.131,4.407 -5.925,4.407c-0.734,0 -1.436,-0.135 -2.09,-0.37l0,25.454c0,0.781 0.635,1.416 1.416,1.416l58.612,0c0.782,0 1.416,-0.635 1.416,-1.416l0,-25.456c-0.654,0.236 -1.356,0.372 -2.09,0.372Z" style="fill:#000;"/></svg>