<?xml version="1.0" standalone="no"?><!DOCTYPE svg PUBLIC "-//W3C//DTD SVG 1.1//EN" "http://www.w3.org/Graphics/SVG/1.1/DTD/svg11.dtd"><svg width="100%" height="100%" viewBox="0 0 17 15" version="1.1" xmlns="http://www.w3.org/2000/svg" xmlns:xlink="http://www.w3.org/1999/xlink" xml:space="preserve" style="fill-rule:evenodd;clip-rule:evenodd;stroke-linejoin:round;stroke-miterlimit:1.41421;"><path d="M0.105,3c-0.058,0 -0.105,0.043 -0.105,0.097l0,11.806c0,0.054 0.047,0.097 0.105,0.097l16.29,0c0.058,0 0.105,-0.043 0.105,-0.097l0,-11.806c0,-0.054 -0.047,-0.097 -0.105,-0.097l-16.29,0ZM11.453,11.86c-0.526,0 -0.953,0.426 -0.953,0.952c0,0.528 0.427,0.953 0.953,0.953c0.527,0 0.953,-0.426 0.953,-0.953c0,-0.526 -0.426,-0.952 -0.953,-0.952ZM6.486,11.86c-0.526,0 -0.953,0.426 -0.953,0.952c0,0.528 0.427,0.953 0.953,0.953c0.527,0 0.953,-0.426 0.953,-0.953c0,-0.526 -0.426,-0.952 -0.953,-0.952ZM12.367,8.676c0.189,0 0.352,-0.13 0.395,-0.313l1.102,-3.591c0.051,-0.218 -0.084,-0.437 -0.303,-0.487c-0.218,-0.051 -0.435,0.084 -0.486,0.302l-0.117,0.496l-7.453,0l-0.215,-1.012c-0.04,-0.187 -0.205,-0.321 -0.397,-0.321l-1.862,0c-0.224,0 -0.406,0.182 -0.406,0.405c0,0.224 0.182,0.406 0.406,0.406l1.534,0l1.032,4.851c0,0.004 -0.002,0.007 -0.003,0.011l-0.264,1.294c-0.021,0.099 0.005,0.202 0.069,0.281c0.064,0.078 0.16,0.123 0.26,0.123l6.809,0c0.186,0 0.336,-0.151 0.336,-0.336c0,-0.186 -0.15,-0.337 -0.336,-0.337l-6.397,0l0.141,-0.686l6.155,-1.086ZM0.75,1.5l0,0.75l15,0l0,-0.75l-15,0ZM1.5,0l0,0.75l13.5,0l0,-0.75l-13.5,0Z" style="fill:#000;"/></svg>