<?xml version="1.0" standalone="no"?><!DOCTYPE svg PUBLIC "-//W3C//DTD SVG 1.1//EN" "http://www.w3.org/Graphics/SVG/1.1/DTD/svg11.dtd"><svg width="100%" height="100%" viewBox="0 0 800 800" version="1.1" xmlns="http://www.w3.org/2000/svg" xmlns:xlink="http://www.w3.org/1999/xlink" xml:space="preserve" style="fill-rule:evenodd;clip-rule:evenodd;stroke-linejoin:round;stroke-miterlimit:1.41421;"><g id="Layer1"><path d="M726.761,800l-653.522,0l-73.239,0l0,-800l800,0l0,800l-73.239,0ZM224.225,668.169l-61.971,0l0,-61.972l61.971,0l0,61.972ZM212.958,617.465l-39.437,0l0,39.436l39.437,0l0,-39.436ZM620.845,620.845l-327.887,0c-9.014,0 -16.902,7.887 -16.902,16.901c0,9.015 7.888,16.902 16.902,16.902l327.887,0c9.014,0 16.901,-7.887 16.901,-16.902c0,-9.014 -6.76,-16.901 -16.901,-16.901ZM224.225,579.155l-61.971,0l0,-61.972l61.971,0l0,61.972ZM212.958,528.451l-39.437,0l0,39.436l39.437,0l0,-39.436ZM620.845,530.704l-327.887,0c-9.014,0 -16.902,7.888 -16.902,16.902c0,9.014 7.888,16.901 16.902,16.901l327.887,0c9.014,0 16.901,-7.887 16.901,-16.901c0,-9.014 -6.76,-16.902 -16.901,-16.902ZM224.225,490.141l-61.971,0l0,-61.972l61.971,0l0,61.972ZM212.958,439.437l-39.437,0l0,39.436l39.437,0l0,-39.436ZM276.056,458.592c0,9.014 7.888,16.901 16.902,16.901l327.887,0c9.014,0 16.901,-7.887 16.901,-16.901c0,-9.015 -7.887,-16.902 -16.901,-16.902l-327.887,0c-9.014,0 -16.902,7.887 -16.902,16.902ZM344.36,312.197c-16.617,0 -30.081,13.457 -30.081,30.055c0,16.63 13.464,30.068 30.081,30.068c16.604,0 30.055,-13.445 30.055,-30.068c0,-16.604 -13.451,-30.055 -30.055,-30.055ZM503.185,312.197c-16.617,0 -30.067,13.457 -30.067,30.055c0,16.63 13.457,30.068 30.067,30.068c16.604,0 30.055,-13.445 30.055,-30.068c0,-16.604 -13.451,-30.055 -30.055,-30.055ZM529.895,211.754c5.961,0 11.103,-4.099 12.466,-9.894l34.768,-113.28c1.599,-6.888 -2.673,-13.77 -9.555,-15.376c-6.882,-1.605 -13.752,2.667 -15.363,9.537l-3.672,15.644l-235.136,0l-6.792,-31.916c-1.254,-5.91 -6.473,-10.131 -12.517,-10.131l-58.754,0c-7.068,0 -12.805,5.731 -12.805,12.792c0,7.068 5.731,12.805 12.805,12.805l48.392,0l32.581,153.024c-0.025,0.122 -0.089,0.224 -0.115,0.352l-8.334,40.838c-0.639,3.122 0.16,6.371 2.188,8.846c2.008,2.462 5.033,3.895 8.219,3.895l214.803,0c5.871,0 10.617,-4.758 10.617,-10.617c0,-5.859 -4.746,-10.618 -10.617,-10.618l-201.807,0l4.42,-21.644l194.208,-34.257Z" style="fill:#000;"/></g></svg>